<svg xmlns="http://www.w3.org/2000/svg" viewBox="0 0 199.83 254.61"><defs><style>.cls-1{fill:none;stroke:#fff;stroke-linejoin:bevel;stroke-width:10px;}</style></defs><g id="Layer_2" data-name="Layer 2"><g id="Layer_1-2" data-name="Layer 1"><polygon class="cls-1" points="167.6 187.66 35.51 187.66 5.22 173.36 5.22 231.23 35.51 249.62 167.6 249.62 194.83 231.23 194.83 173.36 167.6 187.66"/><polygon class="cls-1" points="167.38 110.43 35.3 110.43 5 96.13 5 154 35.3 172.38 167.38 172.38 194.62 154 194.62 96.13 167.38 110.43"/><polygon class="cls-1" points="167.38 32.47 35.3 32.47 5 18.17 5 76.04 35.3 94.43 167.38 94.43 194.62 76.04 194.62 18.17 167.38 32.47"/><polyline class="cls-1" points="3.27 21.96 30.36 5 169.64 5 195.65 21.59"/></g></g></svg>