<svg xmlns="http://www.w3.org/2000/svg" viewBox="0 0 217.94 156.89"><defs><style>.cls-1{fill:none;stroke:#fff;stroke-miterlimit:10;stroke-width:10px;}</style></defs><g id="Layer_2" data-name="Layer 2"><g id="Layer_1-2" data-name="Layer 1"><polygon class="cls-1" points="67.24 7.38 96.52 7.38 96.52 122.45 67.07 151.89 31.5 151.89 7.07 127.47 28.6 105.94 45.97 123.3 53.62 123.3 65.79 111.13 67.24 7.38"/><polygon class="cls-1" points="205.79 28.83 181.97 5 143.16 5 120.69 27.47 120.86 65.57 185.03 100.66 185.03 118.7 176.69 127.04 153.03 127.04 134.22 108.23 115.58 126.87 137.37 151.89 192.86 151.89 212.94 128.57 212.94 87.04 150.65 50.28 150.65 35.3 156.94 29 176.18 29 190.22 43.04 205.79 28.83"/></g></g></svg>