<svg xmlns="http://www.w3.org/2000/svg" viewBox="0 0 236.04 235.49"><defs><style>.cls-1{fill:none;stroke:#fff;stroke-miterlimit:10;stroke-width:10px;}</style></defs><g id="Layer_2" data-name="Layer 2"><g id="Layer_1-2" data-name="Layer 1"><polygon class="cls-1" points="62.19 50.28 62.19 20.66 88.06 5 147.64 5 170.79 24.06 170.79 91.47 148.32 111.89 72.75 111.89 53.68 131.98 53.68 171.13 28.15 171.13 5 142.87 5 85.34 29.17 62.53 116.48 62.53 116.48 50.28 62.19 50.28"/><polygon class="cls-1" points="175.21 184.4 121.93 184.4 121.93 171.81 204.15 171.81 231.04 148.3 231.04 83.98 213.17 66.11 188.15 66.11 187.81 100.6 157.17 128.4 87.72 128.4 69.08 147.04 69.08 214.36 85.21 230.49 154.79 230.49 176.13 209.15 175.21 184.4"/><polygon class="cls-1" points="90.87 21.59 84.92 21.59 80.71 25.8 80.71 31.74 84.92 35.95 90.87 35.95 95.08 31.74 95.08 25.8 90.87 21.59"/><polygon class="cls-1" points="154.87 198.84 148.92 198.84 144.71 203.05 144.71 209 148.92 213.2 154.87 213.2 159.07 209 159.07 203.05 154.87 198.84"/></g></g></svg>