<svg xmlns="http://www.w3.org/2000/svg" viewBox="0 0 226.24 254.05"><defs><style>.cls-1{fill:none;stroke:#fff;stroke-miterlimit:10;stroke-width:20px;}</style></defs><g id="Layer_2" data-name="Layer 2"><g id="Layer_1-2" data-name="Layer 1"><path class="cls-1" d="M157.18,112.48c25.57,4.35,37,12.82,47.45,21.5,13.57,11.26,15.56,33.21,4.33,47.34l-23.64,29.74c-16.8,21.13-40.85,33.14-66.06,33L107.32,244c-25-.16-48.79-12.28-65.38-33.34l-24.72-31.4C6,165,8.11,142.75,22,131.73c9.65-7.67,29.17-16.41,51.81-20.45"/><path class="cls-1" d="M165.69,66.86c0,13.69-3.29,31.52-8.92,43.7-9.38,20.3-25.28,31.66-43.3,31.66-17.33,0-32.68-10.2-42.18-29.31-6.32-12.7-10.05-31.47-10.05-46C61.24,30.35,84.62,10,113.47,10S165.69,30.35,165.69,66.86Z"/></g></g></svg>