<svg xmlns="http://www.w3.org/2000/svg" viewBox="0 0 216.3 273.2"><defs><style>.cls-1,.cls-2,.cls-3{fill:none;stroke:#fff;stroke-width:10px;}.cls-1{stroke-linecap:round;}.cls-1,.cls-2{stroke-linejoin:round;}.cls-3{stroke-linejoin:bevel;}</style></defs><g id="Layer_2" data-name="Layer 2"><g id="Layer_1-2" data-name="Layer 1"><path class="cls-1" d="M50.67,5H165.62A45.67,45.67,0,0,1,211.3,50.67v66.41a94.78,94.78,0,0,1-94.78,94.78H99.78A94.78,94.78,0,0,1,5,117.08V50.67A45.67,45.67,0,0,1,50.67,5Z"/><rect class="cls-2" x="59.37" y="212.99" width="96.98" height="55.21"/><line class="cls-1" x1="59.8" y1="230.41" x2="157.07" y2="252.2"/><polyline class="cls-3" points="177.09 120.86 177.09 59.48 153.08 59.48 153.08 118.72 128.4 118.72 128.4 60.02 106.11 60.02 106.11 116.59 79.71 116.59 79.71 61.08 57.77 61.08 57.77 114.99 37.17 114.99 36.91 57.88"/></g></g></svg>