<svg xmlns="http://www.w3.org/2000/svg" viewBox="0 0 176.76 280.94"><defs><style>.cls-1,.cls-2{fill:none;stroke:#fff;stroke-linecap:round;stroke-linejoin:round;}.cls-1{stroke-width:20px;}.cls-2{stroke-width:10px;}</style></defs><g id="Layer_2" data-name="Layer 2"><g id="Layer_1-2" data-name="Layer 1"><path class="cls-1" d="M40,183.62S-53,10,88.48,10s48,187.4,48,187.4-114.33,16.93-74,23.49c47,7.66,88.79,8.9,34.72,26.05-62.81,19.91,5.11,24,5.11,24"/><path class="cls-2" d="M47.63,73.83s4.08,43.4,11.23,43.91S64,81,75.71,81.49s0,34.21,11.24,34.21,5.61-38.3,15.32-38.3,2,41.88,12.25,41.88,17.87-31.66,14.3-40.85c0,0-18.89,123.06-39.83,125.1S36.39,92.72,47.63,73.83Z"/></g></g></svg>