<svg xmlns="http://www.w3.org/2000/svg" viewBox="0 0 252.43 252"><defs><style>.cls-1{fill:none;stroke:#fff;stroke-linecap:round;stroke-linejoin:round;stroke-width:20px;}</style></defs><g id="Layer_2" data-name="Layer 2"><g id="Layer_1-2" data-name="Layer 1"><path class="cls-1" d="M242.43,109.08v25.26a12,12,0,0,1-12,12H205.35a81.94,81.94,0,0,1-6.78,18.43l13.33,13.33a12,12,0,0,1,0,17L194,213a12,12,0,0,1-17,0L164.3,200.24a82.37,82.37,0,0,1-18.2,7.41V230a12,12,0,0,1-12,12H108.82a12,12,0,0,1-12-12v-23.8A83.69,83.69,0,0,1,81.22,199L65.09,215.13a12,12,0,0,1-17,0L30.22,197.28a12,12,0,0,1,0-17L48,162.47a82.4,82.4,0,0,1-5.64-16.11H22a12,12,0,0,1-12-12V109.08a12,12,0,0,1,12-12H45.54a82.38,82.38,0,0,1,5.54-11.74l-17-17a12.05,12.05,0,0,1,0-17L51.94,33.44a12,12,0,0,1,17,0L87.07,51.57a81.22,81.22,0,0,1,11-4.45V22a12,12,0,0,1,12-12h25.25a12,12,0,0,1,12,12V46.44A81,81,0,0,1,159.45,51l20.6-20.59a12,12,0,0,1,17,0l17.86,17.86a12,12,0,0,1,0,17L196,84.23a81.52,81.52,0,0,1,6.19,12.83H230.4A12,12,0,0,1,242.43,109.08Z"/><circle class="cls-1" cx="124.93" cy="126.22" r="41.46"/></g></g></svg>