<svg xmlns="http://www.w3.org/2000/svg" viewBox="0 0 222.08 221.69"><defs><style>.cls-1{fill:none;stroke:#fff;stroke-linecap:round;stroke-linejoin:bevel;stroke-width:10px;}</style></defs><g id="Layer_2" data-name="Layer 2"><g id="Layer_1-2" data-name="Layer 1"><path class="cls-1" d="M217.08,95.41v27.42a6.6,6.6,0,0,1-6.59,6.6H183.25a75.13,75.13,0,0,1-6.18,16.81l12.16,12.16a11,11,0,0,1,0,15.52l-16.3,16.3a11,11,0,0,1-15.52,0l-11.62-11.63a74.92,74.92,0,0,1-16.6,6.76V210.1a6.6,6.6,0,0,1-6.6,6.59H95.17a11,11,0,0,1-11-11V184A76,76,0,0,1,70,177.45L55.27,192.18a11,11,0,0,1-15.53,0l-16.29-16.3a11,11,0,0,1,0-15.52l16.22-16.24a74.94,74.94,0,0,1-5.14-14.69H11.6a6.6,6.6,0,0,1-6.6-6.6V95.41a11,11,0,0,1,11-11H37.43a74.9,74.9,0,0,1,5-10.71L27,58.2a11,11,0,0,1,0-15.52l16.3-16.3a11,11,0,0,1,15.52,0L75.33,42.93a72.67,72.67,0,0,1,10-4.06V16a11,11,0,0,1,11-11h27.42a6.59,6.59,0,0,1,6.6,6.6V38.25a73.24,73.24,0,0,1,11,4.18l18.79-18.79a11,11,0,0,1,15.53,0L192,39.94a11,11,0,0,1,0,15.52L174.7,72.74a73.36,73.36,0,0,1,5.65,11.7h25.76A11,11,0,0,1,217.08,95.41Z"/><polygon class="cls-1" points="124.87 74.01 93.88 74.01 71.97 95.93 71.97 126.92 93.88 148.83 124.87 148.83 146.79 126.92 146.79 95.93 124.87 74.01"/></g></g></svg>