<svg xmlns="http://www.w3.org/2000/svg" viewBox="0 0 232.29 243.8"><defs><style>.cls-1,.cls-2{fill:none;stroke:#fff;stroke-linejoin:round;stroke-width:10px;}.cls-1{stroke-linecap:round;}</style></defs><g id="Layer_2" data-name="Layer 2"><g id="Layer_1-2" data-name="Layer 1"><path class="cls-1" d="M85.32,5h63.09a19.53,19.53,0,0,1,19.53,19.53V108a31.53,31.53,0,0,1-31.53,31.53H97.32A31.53,31.53,0,0,1,65.79,108V24.53A19.53,19.53,0,0,1,85.32,5Z"/><path class="cls-1" d="M168.78,103.56,200,105a27.33,27.33,0,0,1,27.33,27.33v27.34a79.13,79.13,0,0,1-79.13,79.13h-64A79.13,79.13,0,0,1,5,159.67V132.33A27.34,27.34,0,0,1,32.34,105l30.93-1"/><line class="cls-2" x1="85.57" y1="53.92" x2="146.72" y2="53.92"/></g></g></svg>