<svg xmlns="http://www.w3.org/2000/svg" viewBox="0 0 221.51 320.21"><defs><style>.cls-1,.cls-2,.cls-3{fill:none;stroke:#fff;stroke-width:10px;}.cls-1,.cls-2{stroke-miterlimit:10;}.cls-2{stroke-linecap:square;}.cls-3{stroke-linejoin:round;}</style></defs><g id="Layer_2" data-name="Layer 2"><g id="Layer_1-2" data-name="Layer 1"><polygon class="cls-1" points="216.51 75.5 216.51 315.21 5 315.21 5 5 146.01 5 216.51 75.5"/><polyline class="cls-1" points="75.5 33.2 33.2 33.2 33.2 75.5 75.5 75.5"/><polyline class="cls-2" points="89.6 33.2 89.6 61.4 103.7 75.5 103.7 75.5 117.81 61.4 117.81 33.2"/><polygon class="cls-3" points="146.01 75.5 216.51 75.5 146.01 5 146.01 75.5"/><line class="cls-1" x1="33.2" y1="117.8" x2="188.31" y2="117.8"/><line class="cls-1" x1="33.2" y1="160.11" x2="188.31" y2="160.11"/><line class="cls-1" x1="33.2" y1="202.41" x2="188.31" y2="202.41"/><line class="cls-1" x1="33.2" y1="244.71" x2="188.31" y2="244.71"/><line class="cls-1" x1="33.2" y1="287.01" x2="188.31" y2="287.01"/></g></g></svg>